Simulation
nRows=19
nColumns=15
endheader
time  TH_x TH_y TH_z SC_y  SC_z  SC_x  AC_y  AC_z  AC_x  GH_y  GH_z  GH_yy  EL_x  PS_y
8.073123595505619  0.000000  0.000000  0.000000  -23.836896927692997  5.797101062759181  0.37475738385532986  59.44661140153085  5.822752048648984  6.380800071542356  -58.624753251256394  4.237710909999585  113.481074752999  16.771660874761643  120.000000
8.113288389513109  0.000000  0.000000  0.000000  -23.552926765357675  5.723976934139252  -0.033203300254174825  59.54387266891311  5.366607077671575  6.627227622845911  -42.063251068178865  4.727372693853354  96.40874869853776  16.28267625944474  120.000000
8.153453183520599  0.000000  0.000000  0.000000  -23.253287233107688  5.6545055499764  -0.4334947817547993  59.66200308563972  4.965936002662252  6.902398304665803  -28.066143253491653  5.531934384993412  81.72373978600066  15.736641789139304  120.000000
8.19361797752809  0.000000  0.000000  0.000000  -22.944531221596897  5.60504128482846  -0.7967680161993744  59.807522864682646  4.650229488069002  7.204077170749021  -16.792688509329132  6.631209309939049  69.58488371134449  15.153266461140792  120.000000
8.23378277153558  0.000000  0.000000  0.000000  -22.636678013898738  5.592564284877918  -1.0961268917196385  59.983746800492234  4.445007281477145  7.52931865512491  -7.8989365892967935  8.009911199334852  59.650358019259514  14.554907336562183  120.000000
8.273947565543072  0.000000  0.000000  0.000000  -22.341711682977756  5.630696811746346  -1.3104446187617664  60.19002002830981  4.368513618419644  7.876504265613924  -0.9335207309765843  9.65517000831368  51.475174047936754  13.96460974035802  120.000000
8.314112359550561  0.000000  0.000000  0.000000  -22.071513514970196  5.727730745294259  -1.4267575430141273  60.42588296069769  4.4284775674307735  8.243835561597752  4.525474498191483  11.551205178110314  44.649689565630204  13.403573977178747  120.000000
8.354277153558053  0.000000  0.000000  0.000000  -21.833901296240068  5.887800528695588  -1.4388906952453744  60.692635143353044  4.6224918296953215  8.627019464621377  8.824287665775934  13.677698001498804  38.846476615610975  12.888368184606364  120.000000
8.394441947565543  0.000000  0.000000  0.000000  -21.633397086206973  6.111200960679198  -1.3433339723909195  60.989772731100416  4.94061691389263  9.021922608519718  12.225772806329696  16.010286210351936  33.82732420199752  12.429700481792075  120.000000
8.434606741573035  0.000000  0.000000  0.000000  -21.47154554686434  6.393719900941144  -1.13835409626373  61.31414651342371  5.366985655731373  9.42732871734749  14.926430401619644  18.521151539787404  29.42382045775806  12.031207228336374  120.000000
8.474771535580524  0.000000  0.000000  0.000000  -21.34631857392027  6.726771484728925  -0.8248014208175073  61.66166495399258  5.881908907955617  9.843007253879243  17.070349595910994  21.178142469292357  25.5215032424805  11.690891781445494  120.000000
8.514936329588014  0.000000  0.000000  0.000000  -21.25538043537599  7.101112743974098  -0.4058751913652715  62.02800231407003  6.46278914242265  10.269024498185631  18.76888119724852  23.945862661488317  22.037956290785672  11.403464370293687  120.000000
8.555101123595506  0.000000  0.000000  0.000000  -21.196948221717257  7.507821302625665  0.11393226455319183  62.40788939515373  7.085696427481735  10.705493664753194  20.110815689175777  26.788088324169692  18.91054410385011  11.162262910456768  120.000000
8.595265917602996  0.000000  0.000000  0.000000  -21.169751395531833  7.936869809207707  0.7290344788262196  62.79413761797542  7.727078507330485  11.15084858385163  21.164651810175712  29.669337432922827  16.09233851792982  10.96058373027901  120.000000
8.635430711610487  0.000000  0.000000  0.000000  -21.174816312710796  8.378854483940934  1.4325225255858682  63.17784544905094  8.36413045224302  11.601958298726613  21.98279402154961  32.55538974262941  13.546820577689902  10.792333227873316  120.000000
8.675595505617977  0.000000  0.000000  0.000000  -21.21500155774745  8.82571342420639  2.2166332473570156  63.54876096030653  8.97619491634851  12.054046063772219  22.605748660932804  35.414259891470095  11.244068729284246  10.652707398137895  120.000000
8.715760299625469  0.000000  0.000000  0.000000  -21.293362872956298  9.270832914176959  3.073313383510675  63.89677174573852  9.546226097418053  12.501219404449095  23.065092112591564  38.21744616003283  9.15801656699236  10.537660460006796  120.000000
8.755925093632959  0.000000  0.000000  0.000000  -21.412298860895486  9.70886965164968  3.9941336674925187  64.21284446470067  10.061087724916467  12.937413366259268  23.385599760640577  40.93975916002975  7.2654182416617115  10.44433347207977  120.000000
8.79608988764045  0.000000  0.000000  0.000000  -21.572585730989694  10.135081929450209  4.969151752670809  64.4897906137835  10.510950754310802  13.35685809323252  23.58717081102628  43.55867703518646  5.545104681698418  10.370916444227435  120.000000
